PathFileType	4	(X/Y/Z)	./resultDataOpenSim/trcMotMarkerGrf/sub09/qtm-04-02.trc
DataRate	CameraRate	NumFrames	NumMarkers	Units	OrigDataRate	OrigDataStartFrame	OrigNumFrames
250.000000	250.000000	14	24	m	250.000000	62	493
Frame#	Time	L.Toe.Tip			R.Toe.Tip			L.Ankle.Lat			R.Ankle.Lat			L.Ankle.Med			R.Ankle.Med			L.Heel			R.Heel			L.Knee.Lat			R.Knee.Lat			L.Knee.Med			R.Knee.Med			L.Thigh.Upper			R.Thigh.Upper			L.ASIS			R.ASIS			V.Sacral			L.Acromium			R.Acromium			C7			L.Elbow			R.Elbow			L.Wrist.Lat			R.Wrist.Lat
		X1	Y1	Z1	X2	Y2	Z2	X3	Y3	Z3	X4	Y4	Z4	X5	Y5	Z5	X6	Y6	Z6	X7	Y7	Z7	X8	Y8	Z8	X9	Y9	Z9	X10	Y10	Z10	X11	Y11	Z11	X12	Y12	Z12	X13	Y13	Z13	X14	Y14	Z14	X15	Y15	Z15	X16	Y16	Z16	X17	Y17	Z17	X18	Y18	Z18	X19	Y19	Z19	X20	Y20	Z20	X21	Y21	Z21	X22	Y22	Z22	X23	Y23	Z23	X24	Y24	Z24

62	0.244	-1.3173817	0.1032573	-0.040809284	-0.62797587	0.039245034	0.095126035	-1.3398557	0.25985783	-0.076555414	-0.77503582	0.054030883	0.13102533	-1.3151117	0.24130089	0.016104348	-0.76822468	0.090811922	0.038539109	-1.4010064	0.3047671	-0.025665527	-0.84449411	0.031034098	0.084307246	-0.96277963	0.42543679	-0.10273631	-0.72259298	0.50615325	0.18348966	-0.95097145	0.41095465	0.022710929	-0.74268118	0.49266768	0.05692372	-0.94248655	0.83202943	-0.12250621	-0.91317892	0.86362868	0.25042279	-0.85243607	0.91722736	-0.06822966	-0.84350646	0.94579404	0.17047078	-1.0167253	0.99140154	0.052621992	-0.82768594	1.3887907	-0.10301289	-0.87403147	1.3861418	0.22342058	-0.92013856	1.4410188	0.055590635	-0.92368455	1.0241788	-0.17734406	-1.0225198	1.0552388	0.2862905	-0.68152194	0.89797199	-0.1596133	-0.91991851	0.80680705	0.33861917
63	0.248	-1.3026418	0.10542214	-0.042160614	-0.62797434	0.039259095	0.095010909	-1.3264268	0.26176218	-0.076273812	-0.77506427	0.054095833	0.13093675	-1.3000263	0.24341319	0.015494909	-0.76804372	0.090782157	0.038382088	-1.3880882	0.30622443	-0.025439738	-0.84455753	0.031070148	0.08420316	-0.94973141	0.42661487	-0.10216456	-0.71950412	0.50586521	0.1834229	-0.93771247	0.41187196	0.023410161	-0.73975187	0.49254554	0.056682322	-0.93615574	0.83337464	-0.12232703	-0.90772269	0.86514537	0.25055648	-0.8466376	0.91877462	-0.068054592	-0.83721741	0.94721688	0.1706196	-1.0102494	0.99290797	0.053683639	-0.82206335	1.3900802	-0.10311481	-0.86754096	1.3876037	0.22346863	-0.91424745	1.4423728	0.055567453	-0.9186405	1.0255985	-0.17663111	-1.0156926	1.0561002	0.28702258	-0.6784213	0.89600651	-0.15971593	-0.90965053	0.8084726	0.33781605
64	0.252	-1.2876024	0.10739113	-0.043386726	-0.62799313	0.039285044	0.094924698	-1.3127913	0.26337226	-0.076008112	-0.77507481	0.054149634	0.13085845	-1.2856632	0.244996	0.015308124	-0.767902	0.09076382	0.038254301	-1.3749988	0.30720961	-0.025170483	-0.8446123	0.031102119	0.084114438	-0.93680841	0.42795161	-0.10160855	-0.71666269	0.50560447	0.18338768	-0.92450365	0.41299583	0.024132514	-0.73696958	0.49245615	0.056625183	-0.92990476	0.83482316	-0.12218496	-0.902643	0.86662531	0.25061978	-0.84070704	0.92046841	-0.067798572	-0.83077635	0.94869157	0.17082049	-1.0036785	0.99443062	0.054767575	-0.81649265	1.3914559	-0.10321784	-0.86110204	1.389136	0.22351261	-0.90842623	1.4438265	0.055523686	-0.91367901	1.0271199	-0.17589212	-1.008876	1.0570508	0.28782044	-0.67548292	0.89411523	-0.15983543	-0.89938892	0.81029944	0.33699272
65	0.256	-1.2722389	0.10915788	-0.044518926	-0.62803354	0.039315023	0.094874729	-1.2988956	0.2647045	-0.075815929	-0.77507872	0.054195793	0.13079472	-1.272042	0.24590892	0.015641915	-0.76780218	0.090756219	0.038164018	-1.3616577	0.30779774	-0.025047478	-0.84465866	0.031128816	0.084037219	-0.92387461	0.42946317	-0.10107929	-0.71410896	0.50535117	0.18337009	-0.91131652	0.41432922	0.024890104	-0.73453344	0.49238216	0.056897318	-0.92371125	0.83636065	-0.12203995	-0.89821931	0.86798781	0.25054336	-0.83476246	0.92227506	-0.067501883	-0.82427854	0.95018638	0.17106116	-0.99743416	0.99600549	0.055323585	-0.81098308	1.3929025	-0.10331889	-0.85471564	1.3907372	0.22356294	-0.90257451	1.4454031	0.055514952	-0.90886615	1.0287381	-0.17521585	-1.0020905	1.0580738	0.28863371	-0.67273584	0.8922987	-0.15998504	-0.88915233	0.81228702	0.336148
66	0.26	-1.2565209	0.11072139	-0.045577044	-0.62809457	0.039345167	0.094860908	-1.2848018	0.26577659	-0.075680972	-0.77508678	0.054236204	0.13074711	-1.2590701	0.24632774	0.016353114	-0.76774668	0.090762384	0.03811268	-1.3482229	0.30806331	-0.024967471	-0.84469813	0.031154183	0.083968709	-0.91073601	0.43116365	-0.10055656	-0.71181647	0.50509142	0.18336946	-0.89824986	0.41586268	0.025679188	-0.73255507	0.49230806	0.057514438	-0.91746957	0.8379866	-0.1218391	-0.89470348	0.86917322	0.25025446	-0.82891255	0.92415148	-0.067208836	-0.81799387	0.95165146	0.17129073	-0.99154507	0.99762036	0.055403733	-0.80553827	1.3944087	-0.1034092	-0.84837161	1.392408	0.22362653	-0.89669114	1.4470935	0.055451853	-0.90417909	1.0304384	-0.17458678	-0.99534801	1.0591598	0.28943754	-0.67015931	0.89055774	-0.16016351	-0.87895473	0.81443146	0.33528124
67	0.264	-1.2405078	0.11208077	-0.046551722	-0.62817354	0.039376305	0.094877337	-1.270652	0.26659793	-0.075532085	-0.77509807	0.054269984	0.1307085	-1.246718	0.24650849	0.017264263	-0.76773252	0.090785181	0.038096572	-1.3348639	0.30804798	-0.024781794	-0.8447321	0.03118546	0.083909002	-0.89737416	0.43305362	-0.10000741	-0.70970455	0.50482432	0.18338469	-0.88544957	0.4175897	0.026483574	-0.73087595	0.49222779	0.058261333	-0.91106202	0.83971439	-0.121564	-0.89170431	0.87025288	0.24983335	-0.82317833	0.92607932	-0.066927434	-0.81227025	0.95303869	0.17143907	-0.98580194	0.99925537	0.055375292	-0.80014513	1.3959699	-0.10348243	-0.84205708	1.3941435	0.22370247	-0.89081538	1.4488688	0.05526985	-0.89944471	1.0321994	-0.17383267	-0.9886554	1.060305	0.29022718	-0.66769044	0.88890108	-0.16035481	-0.86879628	0.81672438	0.33439512
68	0.268	-1.2243333	0.11322657	-0.04740115	-0.62826744	0.039410744	0.094916537	-1.2565376	0.26716374	-0.075335335	-0.77510486	0.054296911	0.13066924	-1.2344048	0.24658757	0.01814117	-0.76775176	0.090825446	0.038110098	-1.3215482	0.30774272	-0.024511453	-0.84476182	0.031226843	0.083857641	-0.88401064	0.43511113	-0.099408984	-0.70766643	0.50455962	0.18339427	-0.8729424	0.41949257	0.027286164	-0.72918507	0.49214241	0.058847924	-0.90451503	0.84154696	-0.12125717	-0.88812633	0.87142644	0.24955011	-0.81751394	0.92806248	-0.066639185	-0.80721307	0.9543375	0.17148247	-0.98005621	1.0009117	0.0554608	-0.79478555	1.397582	-0.10353962	-0.83575699	1.3959268	0.22378323	-0.88495373	1.4506752	0.055060843	-0.89446055	1.0340107	-0.17276349	-0.98201732	1.061507	0.29100572	-0.66526893	0.88734334	-0.16054154	-0.85867772	0.81915482	0.33349144
69	0.272	-1.208105	0.11414145	-0.048071112	-0.62837432	0.039449275	0.094971152	-1.2424741	0.26745867	-0.075101467	-0.77510663	0.054319616	0.13062858	-1.2208574	0.24663624	0.018629481	-0.76779991	0.090882191	0.038148427	-1.3081449	0.30712256	-0.024251369	-0.84478991	0.031277061	0.083810986	-0.87084993	0.43730246	-0.098754581	-0.70559703	0.5043106	0.18335571	-0.86050014	0.4215487	0.028055159	-0.72729199	0.49205457	0.05913581	-0.89801043	0.84346141	-0.12098866	-0.88316608	0.87283949	0.24961693	-0.81187857	0.93010087	-0.066336179	-0.80247574	0.95559562	0.17148767	-0.9742886	1.0026036	0.05566596	-0.78944945	1.3992377	-0.10358468	-0.82946637	1.3977399	0.22386294	-0.87908238	1.4524585	0.054973341	-0.88924244	1.0358902	-0.17142393	-0.97543075	1.06276	0.29177666	-0.6628823	0.88589387	-0.16072041	-0.84862084	0.82171137	0.33256511
70	0.276	-1.1918504	0.11481635	-0.048535773	-0.62849331	0.039491059	0.095034248	-1.2284005	0.26748081	-0.074846467	-0.77511659	0.054342485	0.13059492	-1.2051393	0.24672755	0.018465775	-0.76788071	0.090952779	0.03820852	-1.2945912	0.30618784	-0.024041865	-0.84481985	0.031333804	0.083766068	-0.8579079	0.43960338	-0.098053768	-0.70343208	0.50409322	0.18324809	-0.84782535	0.42379944	0.028709652	-0.72519015	0.49196598	0.05913104	-0.89169104	0.84542806	-0.12078823	-0.87702097	0.87445901	0.2499894	-0.80627311	0.93218072	-0.066031043	-0.79757349	0.95688266	0.17155104	-0.96852238	1.0043437	0.055927307	-0.78413417	1.4009287	-0.10362057	-0.82320281	1.399583	0.22394306	-0.87319112	1.4542015	0.055045065	-0.88407336	1.0378635	-0.17012429	-0.96888299	1.0640545	0.29254159	-0.66057262	0.88454957	-0.16090623	-0.83866709	0.82438046	0.33160448
71	0.28	-1.1754836	0.11527363	-0.048842271	-0.62862223	0.039535024	0.095101043	-1.2141301	0.26726038	-0.074596885	-0.77515481	0.054369352	0.13057625	-1.1879396	0.24680179	0.017860287	-0.76799977	0.091034472	0.038287327	-1.2809104	0.30495874	-0.023868132	-0.84485401	0.031397045	0.083725078	-0.84510071	0.44201856	-0.097324598	-0.70119408	0.50391027	0.183104	-0.83488945	0.42637434	0.029156816	-0.72292211	0.49187762	0.058855403	-0.88551961	0.84743487	-0.12062362	-0.87044651	0.87615203	0.25047046	-0.80071535	0.93428505	-0.065736224	-0.79233822	0.95823047	0.17170676	-0.96276572	1.0061317	0.056203209	-0.77883801	1.4026474	-0.10364993	-0.81698757	1.4014671	0.22402757	-0.86729354	1.4559166	0.05520547	-0.87920604	1.0399397	-0.16908273	-0.96236135	1.0653818	0.29330045	-0.658391	0.88330164	-0.16111848	-0.82884906	0.82714913	0.33059985
72	0.284	-1.1588212	0.11556822	-0.049110229	-0.62875668	0.039579968	0.095170032	-1.1994931	0.26682985	-0.074379737	-0.77523344	0.054400207	0.13057574	-1.1710023	0.24665714	0.017360423	-0.76815365	0.091125795	0.038379769	-1.2671589	0.30344485	-0.023683186	-0.84489273	0.031466705	0.08369265	-0.83234003	0.44457598	-0.096591223	-0.69896273	0.50373913	0.18297341	-0.82196735	0.4293442	0.029468711	-0.72052553	0.49179281	0.058369192	-0.87935186	0.84949116	-0.12044044	-0.86405875	0.87780668	0.25089488	-0.79519934	0.93640464	-0.065450556	-0.78690266	0.95962355	0.17192538	-0.95701544	1.0079525	0.056480617	-0.77355808	1.4043878	-0.10367501	-0.81082035	1.4033925	0.2241153	-0.86140506	1.4576178	0.055377994	-0.87459137	1.0421194	-0.16810923	-0.95586348	1.0667367	0.29405239	-0.65634698	0.88214231	-0.16136892	-0.81914667	0.83001443	0.3295584
73	0.288	-1.1416929	0.11576066	-0.049472155	-0.62889293	0.039623442	0.095242062	-1.1845984	0.26618577	-0.07417591	-0.7753335	0.054428623	0.13058675	-1.1552217	0.24617122	0.017256266	-0.76832508	0.09122383	0.038480004	-1.2533587	0.30163643	-0.023469341	-0.84493353	0.031540331	0.083669341	-0.81953014	0.44729498	-0.09592159	-0.69680421	0.50357099	0.18287557	-0.80944256	0.43257966	0.029968864	-0.71811613	0.49171626	0.05787968	-0.8730878	0.85161306	-0.1202019	-0.85812252	0.87936772	0.25119474	-0.78969496	0.93853874	-0.065164493	-0.78141432	0.96103191	0.17216943	-0.9512672	1.0097904	0.056759598	-0.76828931	1.4061412	-0.10369757	-0.80468595	1.4053434	0.22420045	-0.85552993	1.4593111	0.05552625	-0.87000607	1.0443905	-0.16686694	-0.94939286	1.0681176	0.29479733	-0.65442144	0.88106268	-0.16166521	-0.80947126	0.8329867	0.32851152
74	0.292	-1.1240431	0.11590194	-0.049998954	-0.62902851	0.039662035	0.095318103	-1.1697074	0.26530221	-0.073943423	-0.7753695	0.054436811	0.13057756	-1.1402375	0.2453799	0.017443661	-0.76848861	0.091321571	0.038582835	-1.2394799	0.29952166	-0.023289192	-0.84496925	0.031616115	0.083649862	-0.80655319	0.45017569	-0.095469746	-0.69477553	0.50344455	0.182816	-0.79755084	0.43585759	0.030935629	-0.71585149	0.49164557	0.057629034	-0.86674419	0.85379105	-0.11991877	-0.85264703	0.88082464	0.25138404	-0.78417996	0.94068636	-0.064869213	-0.77591925	0.96243369	0.17242395	-0.94551663	1.0116399	0.057032783	-0.76302204	1.4078926	-0.10371937	-0.79857125	1.4072983	0.22427968	-0.84966601	1.460998	0.055644406	-0.86535408	1.0466975	-0.16538282	-0.94294646	1.0695209	0.29553497	-0.6526116	0.88005374	-0.16201808	-0.79972659	0.8360769	0.32749145
75	0.296	-1.1060266	0.11602639	-0.050587439	-0.62915865	0.039693594	0.095397574	-1.1548874	0.26416418	-0.073675911	-0.77518294	0.054391254	0.1304867	-1.1254507	0.24436097	0.017758276	-0.76862172	0.091411927	0.03868266	-1.2255072	0.29710115	-0.023179674	-0.84498898	0.031693512	0.083629155	-0.7933636	0.45320819	-0.095347813	-0.69298295	0.50340058	0.18284756	-0.78616073	0.43906293	0.032270556	-0.71378504	0.49157226	0.057656529	-0.86042596	0.85597528	-0.11967523	-0.84753673	0.88218777	0.25151065	-0.77864229	0.94283886	-0.064562875	-0.77042207	0.96381457	0.17269831	-0.9397667	1.0134934	0.057268627	-0.75774679	1.4096255	-0.10374071	-0.79246299	1.4092366	0.22435261	-0.84381392	1.4626768	0.055738673	-0.86071295	1.0489665	-0.16400683	-0.93651767	1.0709373	0.29626417	-0.65092212	0.87911125	-0.16243764	-0.78991175	0.83927431	0.32649652
